#!OML:ASF F:\VICON\USERDATA\INSTALL\rory3\rory3.ASF
:FULLY-SPECIFIED
:DEGREES
258
root 5.16268 14.195 27.3927 0.413657 -60.6747 5.71989
lowerback 18.9667 5.20581 -14.6205
upperback -0.173131 2.22588 -8.77298
thorax -11.246 1.37915 -2.27265
lowerneck -5.16915 1.22673 -0.141845
upperneck 18.2044 0.145139 7.63165
head 6.35696 0.547823 2.45876
rclavicle 0 -8.90555e-014
rhumerus -16.048 -12.3849 -93.4085
rradius 42.0365
rwrist -68.0267
rhand -45.1621 32.3045
rfingers 7.12502
rthumb -17.9396 3.11194
lclavicle 0 -8.90555e-014
lhumerus -14.161 -10.9421 88.1838
lradius 77.2296
lwrist 69.82
lhand -13.1585 24.6246
lfingers 7.12502
lthumb 12.9404 54.2033
rfemur -102.517 -22.6606 57.1253
rtibia 107.263
rfoot 44.0725 -44.1613
rtoes 42.9851
lfemur -50.2176 19.489 -38.3426
ltibia 77.6551
lfoot -42.3919 16.8035
ltoes 1.01984
259
root 5.16615 14.1665 27.4024 -0.600827 -60.6574 6.52048
lowerback 19.4359 5.37211 -14.9174
upperback -0.114482 2.27328 -8.7478
thorax -11.466 1.41786 -2.1372
lowerneck -5.2292 1.03826 -0.343559
upperneck 18.1742 -0.0822343 7.61508
head 6.36626 0.425716 2.47214
rclavicle -2.54444e-014 -3.18055e-014
rhumerus -15.9767 -4.78667 -94.5301
rradius 47.3121
rwrist -73.4523
rhand -45.5302 30.4258
rfingers 7.12502
rthumb -18.2938 1.26602
lclavicle -2.54444e-014 -3.18055e-014
lhumerus -14.632 -16.3372 87.8341
lradius 79.4068
lwrist 70.2353
lhand -8.34961 27.7744
lfingers 7.12502
lthumb 17.5724 57.0002
rfemur -104.182 -23.1614 56.6019
rtibia 110.153
rfoot 43.1521 -46.5023
rtoes 44.614
lfemur -49.9194 19.4696 -38.7211
ltibia 77.7353
lfoot -42.4647 17.3334
ltoes -0.22322
260
root 5.16589 14.1382 27.4127 -1.3065 -60.6058 6.90185
lowerback 20.0328 5.502 -14.8927
upperback -0.0685668 2.31147 -8.7647
thorax -11.7537 1.4361 -2.23072
lowerneck -4.67991 1.06498 0.657781
upperneck 17.4806 0.112232 6.41719
head 6.05231 0.477168 1.92033
rclavicle 5.725e-014 -9.54166e-015
rhumerus -15.1147 0.697394 -95.2457
rradius 50.9579
rwrist -76.7963
rhand -44.8027 27.9461
rfingers 7.12502
rthumb -17.5938 -1.27789
lclavicle 5.725e-014 -9.54166e-015
lhumerus -15.0293 -21.9347 87.3049
lradius 81.7501
lwrist 71.1213
lhand -7.43528 25.0858
lfingers 7.12502
lthumb 18.4521 54.2306
rfemur -105.742 -23.6148 56.4727
rtibia 112.622
rfoot 46.7026 -44.6933
rtoes 43.9606
lfemur -49.5618 19.6391 -38.8418
ltibia 77.7806
lfoot -42.6067 17.2368
ltoes 0.392841
261
root 5.1695 14.1483 27.4157 -2.11561 -60.7102 7.47387
lowerback 20.3966 5.68864 -15.0993
upperback -0.0161277 2.42137 -8.76721
thorax -11.9196 1.49616 -2.18868
lowerneck -4.66458 0.868356 0.0200029
upperneck 17.5395 -0.190834 7.00901
head 6.07359 0.332461 2.19648
rclavicle 2.3059e-014 1.33583e-013
rhumerus -14.6628 5.46026 -95.3854
rradius 55.2069
rwrist -79.157
rhand -43.2426 23.7191
rfingers 7.12502
rthumb -16.092 -5.63279
lclavicle 2.3059e-014 1.33583e-013
lhumerus -15.2206 -27.0606 86.6397
lradius 84.1598
lwrist 71.6883
lhand -7.30202 20.9945
lfingers 7.12502
lthumb 18.5803 50.1271
rfemur -107.92 -24.3708 55.1158
rtibia 115.724
rfoot 40.4373 -51.7632
rtoes 49.6431
lfemur -49.1339 20.2358 -39.0821
ltibia 77.5961
lfoot -42.5024 16.9314
ltoes 1.18702
262
root 5.14446 14.1562 27.4753 -3.31706 -61.7322 8.01367
lowerback 20.3668 6.18223 -15.2703
upperback 0.179375 3.03698 -8.81719
thorax -11.7314 1.76594 -2.3379
lowerneck -4.28707 0.896919 0.918166
upperneck 16.9419 -0.0631446 6.2149
head 5.82179 0.378864 1.79275
rclavicle 3.4191e-014 1.90833e-014
rhumerus -14.4314 9.38995 -95.1746
rradius 60.0819
rwrist -81.4532
rhand -41.2753 19.3571
rfingers 7.12502
rthumb -14.1969 -10.1377
lclavicle 3.4191e-014 1.90833e-014
lhumerus -15.1012 -31.8565 85.5948
lradius 86.4715
lwrist 71.5917
lhand -3.5972 20.2208
lfingers 7.12502
lthumb 22.1407 48.973
rfemur -107.518 -24.6164 54.6965
rtibia 117.144
rfoot 45.4257 -48.4885
rtoes 44.5245
lfemur -48.0583 21.2029 -39.1815
ltibia 77.3488
lfoot -43.0607 16.8797
ltoes 1.81687
263
root 5.15863 14.1813 27.4536 -2.8779 -61.4006 7.81555
lowerback 20.4353 6.04669 -15.3882
upperback 0.110389 2.82585 -8.70854
thorax -11.846 1.68838 -2.0944
lowerneck -4.27556 0.858596 1.03268
upperneck 16.7627 -0.119388 6.24296
head 5.76602 0.357152 1.77706
rclavicle 2.94201e-014 1.04958e-013
rhumerus -14.1516 12.4203 -94.7824
rradius 65.0065
rwrist -83.459
rhand -38.8422 14.8541
rfingers 7.12502
rthumb -11.8515 -14.7905
lclavicle 2.94201e-014 1.04958e-013
lhumerus -14.7684 -36.2786 84.1451
lradius 88.7419
lwrist 70.9671
lhand 0.212167 19.6812
lfingers 7.12502
lthumb 25.7936 47.9526
rfemur -110.081 -25.2155 54.4668
rtibia 119.406
rfoot 43.6978 -51.2645
rtoes 47.4726
lfemur -48.3205 21.1625 -39.1279
ltibia 77.1275
lfoot -42.5381 16.7744
ltoes 1.54137
264
root 5.15668 14.2006 27.4589 -2.49929 -61.4065 7.26714
lowerback 20.6295 6.01824 -15.1959
upperback 0.0961656 2.81049 -8.58873
thorax -11.9638 1.68197 -2.07231
lowerneck -4.25513 0.906468 1.05646
upperneck 16.7678 -0.073642 6.34002
head 5.76291 0.386467 1.80642
rclavicle 1.98785e-014 -3.18055e-015
rhumerus -13.7306 14.7782 -94.2356
rradius 69.4478
rwrist -84.8469
rhand -35.3871 10.9489
rfingers 7.12502
rthumb -8.51831 -18.8593
lclavicle 1.98785e-014 -3.18055e-015
lhumerus -14.2093 -40.5578 82.2835
lradius 91.196
lwrist 70.2029
lhand -0.414424 17.0897
lfingers 7.12502
lthumb 25.1934 45.4469
rfemur -111.427 -25.8936 54.4399
rtibia 121.003
rfoot 44.8093 -51.0282
rtoes 46.8846
lfemur -48.1351 21.5764 -38.7513
ltibia 76.9185
lfoot -42.1983 16.2981
ltoes 2.18898
265
root 5.15372 14.2374 27.4669 -1.8729 -61.5228 6.41269
lowerback 20.7387 6.02129 -14.9113
upperback 0.106377 2.90262 -8.36143
thorax -12.0119 1.72386 -2.00042
lowerneck -3.47834 1.11394 1.84947
upperneck 15.8785 0.36456 5.4004
head 5.34772 0.556059 1.39141
rclavicle 2.94201e-014 -6.36111e-014
rhumerus -12.8353 17.1654 -93.2034
rradius 73.4577
rwrist -86.174
rhand -32.3694 7.89892
rfingers 7.12502
rthumb -5.60543 -22.0069
lclavicle 2.94201e-014 -6.36111e-014
lhumerus -13.2063 -44.5897 80.0314
lradius 93.5569
lwrist 68.9856
lhand 3.25293 16.6331
lfingers 7.12502
lthumb 28.7022 44.4477
rfemur -112.784 -26.8265 54.2874
rtibia 122.571
rfoot 45.0408 -51.3942
rtoes 48.5786
lfemur -47.8334 22.0054 -38.2096
ltibia 76.5956
lfoot -41.6988 16.1555
ltoes 2.43657
266
root 5.15338 14.2905 27.4727 -0.967879 -61.4966 5.24628
lowerback 20.9114 5.93832 -14.4928
upperback 0.13289 2.9144 -8.08859
thorax -12.0629 1.7245 -1.92457
lowerneck -3.33129 1.26294 2.13754
upperneck 15.6751 0.620518 4.99491
head 5.25845 0.666336 1.22852
rclavicle -1.74931e-014 6.36111e-015
rhumerus -12.0381 19.8386 -91.7044
rradius 77.7538
rwrist -88.0069
rhand -29.2723 5.58842
rfingers 7.12502
rthumb -2.61473 -24.3753
lclavicle -1.74931e-014 6.36111e-015
lhumerus -11.8938 -48.2492 77.3287
lradius 95.8108
lwrist 67.3287
lhand 5.43806 15.0358
lfingers 7.12502
lthumb 30.7877 42.4775
rfemur -114.154 -28.2065 54.0343
rtibia 124.003
rfoot 44.3204 -52.4111
rtoes 49.6321
lfemur -47.412 22.2584 -37.5123
ltibia 76.1378
lfoot -41.156 16.1228
ltoes 2.43012
267
root 5.14479 14.3401 27.4997 -0.539552 -61.7052 4.29744
lowerback 21.2167 5.9696 -14.1417
upperback 0.205543 3.02934 -7.83331
thorax -12.1469 1.7712 -1.87713
lowerneck -3.50543 1.34122 2.50214
upperneck 15.8104 0.75352 4.50657
head 5.33386 0.726691 1.02585
rclavicle 1.21656e-013 -1.08139e-013
rhumerus -11.4515 22.5295 -90.0159
rradius 81.9589
rwrist -89.6649
rhand -25.9064 4.18885
rfingers 7.12502
rthumb 0.636119 -25.7899
lclavicle 1.21656e-013 -1.08139e-013
lhumerus -10.3004 -51.4747 74.2887
lradius 97.8778
lwrist 65.8495
lhand 8.02714 14.0193
lfingers 7.12502
lthumb 33.2528 40.9658
rfemur -114.932 -29.4007 54.1335
rtibia 125.022
rfoot 49.6782 -47.7821
rtoes 46.5987
lfemur -46.5308 22.6503 -36.8369
ltibia 75.5784
lfoot -40.9182 16.0293
ltoes 2.89871
268
root 5.14066 14.4043 27.5204 -0.270637 -62.0414 3.62029
lowerback 21.5363 6.07444 -14.03
upperback 0.108437 3.16025 -7.55085
thorax -12.4589 1.85002 -1.69769
lowerneck -3.12567 1.40964 2.71846
upperneck 15.6922 0.910443 4.08249
head 5.23451 0.78138 0.862772
rclavicle -1.35174e-014 -1.43125e-013
rhumerus -11.2131 25.0496 -88.376
rradius 85.8639
rwrist -90.5858
rhand -23.3814 3.85137
rfingers 7.12502
rthumb 3.07474 -26.1062
lclavicle -1.35174e-014 -1.43125e-013
lhumerus -8.98463 -54.1228 71.4833
lradius 99.9106
lwrist 64.8457
lhand 10.8195 13.711
lfingers 7.12502
lthumb 35.9031 40.0513
rfemur -115.59 -30.8365 53.3387
rtibia 126.049
rfoot 48.5082 -49.2515
rtoes 47.4947
lfemur -45.7079 23.0616 -36.2843
ltibia 74.8964
lfoot -40.5659 15.8547
ltoes 3.4306
269
root 5.13323 14.4745 27.5429 0.584756 -62.3766 2.38241
lowerback 21.6032 6.13382 -13.7025
upperback 0.035836 3.37661 -7.11858
thorax -12.5996 1.96223 -1.46464
lowerneck -2.36801 1.48945 2.21594
upperneck 15.2051 1.09885 4.17211
head 4.94658 0.833011 0.973245
rclavicle -7.71285e-014 8.5875e-014
rhumerus -11.1415 27.3813 -86.3095
rradius 89.7447
rwrist -91.2174
rhand -21.292 3.95188
rfingers 7.12502
rthumb 5.09241 -25.9669
lclavicle -7.71285e-014 8.5875e-014
lhumerus -7.333 -56.4824 68.4635
lradius 101.671
lwrist 64.7925
lhand 13.455 13.2384
lfingers 7.12502
lthumb 38.3955 38.929
rfemur -116.159 -32.0907 53.0062
rtibia 126.824
rfoot 50.2542 -47.456
rtoes 46.0939
lfemur -44.981 23.4338 -35.4853
ltibia 74.1891
lfoot -40.1041 15.7273
ltoes 3.40761
270
root 5.12637 14.5612 27.562 2.16145 -62.6964 0.2382
lowerback 21.6306 6.06073 -13.0946
upperback 0.167907 3.51002 -6.76607
thorax -12.4445 2.00231 -1.41963
lowerneck -2.41877 1.65249 2.58558
upperneck 15.0756 1.33071 3.92429
head 4.91915 0.950543 0.846518
rclavicle -1.41535e-013 6.67916e-014
rhumerus -10.4499 29.6398 -84.3254
rradius 93.2765
rwrist -91.8583
rhand -19.135 4.24441
rfingers 7.12502
rthumb 7.17487 -25.614
lclavicle -1.41535e-013 6.67916e-014
lhumerus -4.33737 -58.4781 63.5646
lradius 103.365
lwrist 65.9914
lhand 15.4258 12.7895
lfingers 7.12502
lthumb 40.2523 37.9389
rfemur -116.441 -33.6171 52.8118
rtibia 127.458
rfoot 51.2926 -46.1361
rtoes 45.1227
lfemur -44.1006 23.803 -34.1697
ltibia 73.4181
lfoot -39.6468 15.6179
ltoes 3.55131
271
root 5.11812 14.6627 27.5757 4.00784 -63.0725 -2.09481
lowerback 21.6183 6.11197 -12.2565
upperback 0.202432 3.83624 -6.57107
thorax -12.3699 2.11461 -1.75431
lowerneck -2.04246 1.61894 2.95478
upperneck 14.8427 1.28416 3.90614
head 4.78886 0.936816 0.772774
rclavicle -6.59965e-014 5.725e-014
rhumerus -9.75344 31.2889 -82.5125
rradius 96.5245
rwrist -92.1873
rhand -17.536 4.45545
rfingers 7.12502
rthumb 8.71809 -25.3445
lclavicle -6.59965e-014 5.725e-014
lhumerus -1.08009 -60.658 58.3492
lradius 104.739
lwrist 67.4284
lhand 16.9669 11.8773
lfingers 7.12502
lthumb 41.6997 36.5671
rfemur -116.494 -35.0426 52.2618
rtibia 127.947
rfoot 50.7977 -46.6907
rtoes 46.5119
lfemur -43.2519 24.1071 -32.7798
ltibia 72.5226
lfoot -39.2376 15.5847
ltoes 3.65765
272
root 5.10738 14.7718 27.598 5.83951 -63.3883 -4.39579
lowerback 21.6683 6.31612 -11.865
upperback 0.171335 4.27601 -6.07166
thorax -12.4682 2.32409 -1.55648
lowerneck -2.34963 1.54706 3.56788
upperneck 15.075 1.17699 3.47466
head 4.92301 0.900752 0.537828
rclavicle 6.2816e-014 -1.17681e-013
rhumerus -10.3424 33.3375 -79.9215
rradius 100.35
rwrist -91.8381
rhand -17.4767 6.58225
rfingers 7.12502
rthumb 8.77532 -23.2153
lclavicle 6.2816e-014 -1.17681e-013
lhumerus 2.08341 -62.6927 53.8358
lradius 105.621
lwrist 68.4844
lhand 18.7833 11.4429
lfingers 7.12502
lthumb 43.4 35.5459
rfemur -116.345 -36.6026 51.6799
rtibia 128.27
rfoot 51.5414 -45.5151
rtoes 46.5062
lfemur -42.3079 24.1694 -31.408
ltibia 71.511
lfoot -38.8848 15.768
ltoes 4.80401
